<?xml version="1.0" encoding="utf-8" ?>
<svg baseProfile="tiny" height="700px" version="1.2" width="500px" xmlns="http://www.w3.org/2000/svg" xmlns:ev="http://www.w3.org/2001/xml-events" xmlns:xlink="http://www.w3.org/1999/xlink"><defs /><path d="M 142,204 143,204" fill="green" stroke="black" stroke-width="1" /><path d="M 139,204" fill="green" stroke="black" stroke-width="1" /><path d="M 134,204" fill="green" stroke="black" stroke-width="1" /><path d="M 128,204" fill="green" stroke="black" stroke-width="1" /><path d="M 124,204" fill="green" stroke="black" stroke-width="1" /><path d="M 121,204" fill="green" stroke="black" stroke-width="1" /><path d="M 120,204 120,204" fill="green" stroke="black" stroke-width="1" /><path d="M 117,204" fill="green" stroke="black" stroke-width="1" /><path d="M 114,204" fill="green" stroke="black" stroke-width="1" /><path d="M 111,204" fill="green" stroke="black" stroke-width="1" /><path d="M 108,204 108,204" fill="green" stroke="black" stroke-width="1" /><path d="M 103,204 104,204" fill="green" stroke="black" stroke-width="1" /><path d="M 100,204" fill="green" stroke="black" stroke-width="1" /><path d="M 95,204" fill="green" stroke="black" stroke-width="1" /><path d="M 86,204 87,204" fill="green" stroke="black" stroke-width="1" /><path d="M 49,204" fill="green" stroke="black" stroke-width="1" /><path d="M 47,204 48,204" fill="green" stroke="black" stroke-width="1" /><path d="M 44,204" fill="green" stroke="black" stroke-width="1" /><path d="M 42,204" fill="green" stroke="black" stroke-width="1" /><path d="M 39,204" fill="green" stroke="black" stroke-width="1" /><path d="M 36,204" fill="green" stroke="black" stroke-width="1" /><path d="M 33,204" fill="green" stroke="black" stroke-width="1" /><path d="M 141,203 140,204 141,203 141,204" fill="green" stroke="black" stroke-width="1" /><path d="M 138,203 137,204 137,204 137,204 138,203 138,204" fill="green" stroke="black" stroke-width="1" /><path d="M 135,203 135,204 135,203 136,204" fill="green" stroke="black" stroke-width="1" /><path d="M 132,203 132,204 131,204 132,204 132,203 133,204" fill="green" stroke="black" stroke-width="1" /><path d="M 130,203 129,204 130,203 130,204" fill="green" stroke="black" stroke-width="1" /><path d="M 123,203 122,204 123,203 123,204" fill="green" stroke="black" stroke-width="1" /><path d="M 118,203 118,204 118,203 119,204" fill="green" stroke="black" stroke-width="1" /><path d="M 115,203 116,204" fill="green" stroke="black" stroke-width="1" /><path d="M 113,203 112,204 113,203 113,204" fill="green" stroke="black" stroke-width="1" /><path d="M 110,203 109,204 110,203 110,204" fill="green" stroke="black" stroke-width="1" /><path d="M 105,203 105,204 105,203 106,204" fill="green" stroke="black" stroke-width="1" /><path d="M 102,203 101,204 102,203 102,204" fill="green" stroke="black" stroke-width="1" /><path d="M 99,203 98,204 98,204 98,204 99,203 99,204" fill="green" stroke="black" stroke-width="1" /><path d="M 96,203 96,204 96,203 97,204" fill="green" stroke="black" stroke-width="1" /><path d="M 93,203 93,204 92,204 93,204 93,203 94,204" fill="green" stroke="black" stroke-width="1" /><path d="M 91,203 90,204 91,203 91,204" fill="green" stroke="black" stroke-width="1" /><path d="M 66,203 66,204 64,204 68,204 67,204" fill="green" stroke="black" stroke-width="1" /><path d="M 60,203 59,204 59,204 63,204 63,203 62,204 60,204" fill="green" stroke="black" stroke-width="1" /><path d="M 46,203 45,204 46,203 46,204" fill="green" stroke="black" stroke-width="1" /><path d="M 43,203 43,204" fill="green" stroke="black" stroke-width="1" /><path d="M 40,203 40,204 40,203 41,204" fill="green" stroke="black" stroke-width="1" /><path d="M 37,203 38,204" fill="green" stroke="black" stroke-width="1" /><path d="M 35,203 34,204 35,203 35,204" fill="green" stroke="black" stroke-width="1" /><path d="M 15,203 15,204 13,204 31,204 30,204 29,203 29,204 27,204 26,203 26,204 24,204 24,203 23,204 21,204 21,203 20,204 19,204 18,203 18,204 16,204" fill="green" stroke="black" stroke-width="1" /><path d="M 144,202" fill="green" stroke="black" stroke-width="1" /><path d="M 12,202 12,203" fill="green" stroke="black" stroke-width="1" /><path d="M 51,202 51,202 51,203 51,203 51,204 50,203 50,204 50,203 51,204 51,203 52,204 58,204 57,203 57,204 55,204 54,203 54,204 52,204 51,203 51,203 51,202" fill="green" stroke="black" stroke-width="1" /><path d="M 33,202 33,203 32,203 33,203" fill="green" stroke="black" stroke-width="1" /><path d="M 144,201" fill="green" stroke="black" stroke-width="1" /><path d="M 106,201 107,202 106,202 106,203 107,203 107,204 107,203 106,203 106,202 107,202" fill="green" stroke="black" stroke-width="1" /><path d="M 51,201" fill="green" stroke="black" stroke-width="1" /><path d="M 12,201 12,201" fill="green" stroke="black" stroke-width="1" /><path d="M 144,200" fill="green" stroke="black" stroke-width="1" /><path d="M 106,200 106,200 107,200" fill="green" stroke="black" stroke-width="1" /><path d="M 51,199 51,199 51,200 51,200" fill="green" stroke="black" stroke-width="1" /><path d="M 12,199 12,200" fill="green" stroke="black" stroke-width="1" /><path d="M 144,198" fill="green" stroke="black" stroke-width="1" /><path d="M 106,198 107,199 107,198" fill="green" stroke="black" stroke-width="1" /><path d="M 51,198" fill="green" stroke="black" stroke-width="1" /><path d="M 33,198 33,199 32,199 33,200 32,200 33,201 32,200 33,200 32,199 33,199" fill="green" stroke="black" stroke-width="1" /><path d="M 12,198" fill="green" stroke="black" stroke-width="1" /><path d="M 144,197" fill="green" stroke="black" stroke-width="1" /><path d="M 106,197 106,197 107,197" fill="green" stroke="black" stroke-width="1" /><path d="M 51,197" fill="green" stroke="black" stroke-width="1" /><path d="M 144,196" fill="green" stroke="black" stroke-width="1" /><path d="M 12,196 12,197" fill="green" stroke="black" stroke-width="1" /><path d="M 51,196" fill="green" stroke="black" stroke-width="1" /><path d="M 33,196 32,196 33,197 32,196" fill="green" stroke="black" stroke-width="1" /><path d="M 144,195" fill="green" stroke="black" stroke-width="1" /><path d="M 12,195 12,195" fill="green" stroke="black" stroke-width="1" /><path d="M 144,194" fill="green" stroke="black" stroke-width="1" /><path d="M 51,194 51,195" fill="green" stroke="black" stroke-width="1" /><path d="M 32,194 33,194 33,195 33,194" fill="green" stroke="black" stroke-width="1" /><path d="M 12,194" fill="green" stroke="black" stroke-width="1" /><path d="M 144,193" fill="green" stroke="black" stroke-width="1" /><path d="M 51,193" fill="green" stroke="black" stroke-width="1" /><path d="M 12,193" fill="green" stroke="black" stroke-width="1" /><path d="M 106,192 107,193 107,193 106,194 106,194 107,195 106,195 107,196 106,195 107,195 106,194 106,194 107,193 107,192" fill="green" stroke="black" stroke-width="1" /><path d="M 12,192" fill="green" stroke="black" stroke-width="1" /><path d="M 144,191 144,192" fill="green" stroke="black" stroke-width="1" /><path d="M 51,191 51,191 51,192 51,191" fill="green" stroke="black" stroke-width="1" /><path d="M 144,190" fill="green" stroke="black" stroke-width="1" /><path d="M 12,190 12,191" fill="green" stroke="black" stroke-width="1" /><path d="M 3,190 3,192 3,191 7,191 8,192 8,193 8,192 8,192 8,191 7,191 6,191 6,191 5,191 5,191 4,191 4,191 3,191 3,191" fill="green" stroke="black" stroke-width="1" /><path d="M 51,190" fill="green" stroke="black" stroke-width="1" /><path d="M 144,189" fill="green" stroke="black" stroke-width="1" /><path d="M 51,189" fill="green" stroke="black" stroke-width="1" /><path d="M 12,189 12,189" fill="green" stroke="black" stroke-width="1" /><path d="M 144,188" fill="green" stroke="black" stroke-width="1" /><path d="M 106,188 106,188 107,189 106,189 107,190 106,190 106,191 107,191 106,190 107,190 106,189 107,189 107,188" fill="green" stroke="black" stroke-width="1" /><path d="M 51,188" fill="green" stroke="black" stroke-width="1" /><path d="M 12,188" fill="green" stroke="black" stroke-width="1" /><path d="M 144,187" fill="green" stroke="black" stroke-width="1" /><path d="M 12,187 12,187" fill="green" stroke="black" stroke-width="1" /><path d="M 144,186" fill="green" stroke="black" stroke-width="1" /><path d="M 106,186 107,187 107,186" fill="green" stroke="black" stroke-width="1" /><path d="M 47,186 46,187 45,187 45,188 44,188 44,189 45,190 45,190 47,188 47,188 47,187 48,187 48,187 48,186" fill="green" stroke="black" stroke-width="1" /><path d="M 12,186" fill="green" stroke="black" stroke-width="1" /><path d="M 144,185" fill="green" stroke="black" stroke-width="1" /><path d="M 143,183 143,183 144,184 144,183" fill="green" stroke="black" stroke-width="1" /><path d="M 140,183 141,183 142,184 142,183" fill="green" stroke="black" stroke-width="1" /><path d="M 137,183 137,184 138,183 139,183 139,184 139,183" fill="green" stroke="black" stroke-width="1" /><path d="M 134,183 136,183 136,184 136,183" fill="green" stroke="black" stroke-width="1" /><path d="M 131,183 131,184 132,183 133,183 133,184 133,183" fill="green" stroke="black" stroke-width="1" /><path d="M 128,183 130,183 130,184 130,183" fill="green" stroke="black" stroke-width="1" /><path d="M 80,183 80,184 81,183 82,183 82,184 83,183 84,183 84,184 84,183 83,183 82,184 82,183" fill="green" stroke="black" stroke-width="1" /><path d="M 75,183 75,184 76,183 77,183 77,184 78,183 79,183 79,184 79,183 78,183 77,184 77,183" fill="green" stroke="black" stroke-width="1" /><path d="M 73,183 74,183 74,184 74,183" fill="green" stroke="black" stroke-width="1" /><path d="M 68,183 68,184 68,183 69,183 69,184 69,184 70,185 69,185 70,186 69,186 69,187 70,188 69,188 69,189 70,189 69,190 70,190 69,191 69,192 70,192 69,193 70,193 69,194 69,194 70,195 69,195 69,197 70,197 69,198 70,198 69,199 69,199 70,200 69,200 69,201 70,201 69,202 70,202 69,203 69,203 70,204 85,204 85,203 84,204 82,204 82,203 81,204 80,204 79,203 79,204 77,204 76,203 76,204 74,204 74,203 73,204 71,204 71,203 70,204 69,203 70,202 70,201 69,201 69,200 70,200 70,199 69,199 70,198 69,198 70,197 69,197 70,196 69,196 69,195 70,195 69,194 70,194 70,193 69,193 70,192 69,192 70,191 69,191 70,190 69,190 70,189 70,189 69,188 70,188 70,187 69,187 69,186 70,186 70,184 69,184 70,183 71,183 72,184 72,183" fill="green" stroke="black" stroke-width="1" /><path d="M 62,183 62,184 63,183 63,184 64,183 64,184 65,183 66,183 67,184 67,183 65,183 64,184 64,183 63,184 63,183" fill="green" stroke="black" stroke-width="1" /><path d="M 29,183 30,183 30,184 30,183" fill="green" stroke="black" stroke-width="1" /><path d="M 26,183 26,184 26,183 27,183 28,184 28,183" fill="green" stroke="black" stroke-width="1" /><path d="M 23,183 24,183 25,184 25,183" fill="green" stroke="black" stroke-width="1" /><path d="M 20,183 20,184 20,183 21,183 22,184 22,183" fill="green" stroke="black" stroke-width="1" /><path d="M 17,183 18,183 19,184 19,183" fill="green" stroke="black" stroke-width="1" /><path d="M 12,183 12,183 13,184 12,184 12,185 12,184 13,183 14,183 14,184 15,183 15,183 16,184 16,183 15,183 14,184 14,183 13,183 13,184 12,183" fill="green" stroke="black" stroke-width="1" /><path d="M 144,182" fill="green" stroke="black" stroke-width="1" /><path d="M 69,182 70,182" fill="green" stroke="black" stroke-width="1" /><path d="M 12,182" fill="green" stroke="black" stroke-width="1" /><path d="M 144,181" fill="green" stroke="black" stroke-width="1" /><path d="M 106,181 106,181 107,181" fill="green" stroke="black" stroke-width="1" /><path d="M 69,181 69,181 70,181 70,181" fill="green" stroke="black" stroke-width="1" /><path d="M 144,180" fill="green" stroke="black" stroke-width="1" /><path d="M 12,180 12,181" fill="green" stroke="black" stroke-width="1" /><path d="M 144,179" fill="green" stroke="black" stroke-width="1" /><path d="M 106,179 107,180 107,179" fill="green" stroke="black" stroke-width="1" /><path d="M 12,179" fill="green" stroke="black" stroke-width="1" /><path d="M 144,178" fill="green" stroke="black" stroke-width="1" /><path d="M 12,177 12,178" fill="green" stroke="black" stroke-width="1" /><path d="M 144,176" fill="green" stroke="black" stroke-width="1" /><path d="M 12,176" fill="green" stroke="black" stroke-width="1" /><path d="M 144,175" fill="green" stroke="black" stroke-width="1" /><path d="M 106,175 106,175 107,176 106,176 107,177 106,177 106,178 106,177 107,177 106,176 107,176 106,175 107,175" fill="green" stroke="black" stroke-width="1" /><path d="M 12,174 12,175" fill="green" stroke="black" stroke-width="1" /><path d="M 144,173 144,174" fill="green" stroke="black" stroke-width="1" /><path d="M 12,173 12,173" fill="green" stroke="black" stroke-width="1" /><path d="M 3,173 3,173 5,173 5,174 6,173 6,174 7,173 7,173 8,174 8,174 8,173 9,173 3,173" fill="green" stroke="black" stroke-width="1" /><path d="M 144,172" fill="green" stroke="black" stroke-width="1" /><path d="M 106,172 106,173 107,174 107,173 106,173" fill="green" stroke="black" stroke-width="1" /><path d="M 12,172" fill="green" stroke="black" stroke-width="1" /><path d="M 144,171" fill="green" stroke="black" stroke-width="1" /><path d="M 12,171" fill="green" stroke="black" stroke-width="1" /><path d="M 106,170 107,171" fill="green" stroke="black" stroke-width="1" /><path d="M 12,170" fill="green" stroke="black" stroke-width="1" /><path d="M 144,169 144,170" fill="green" stroke="black" stroke-width="1" /><path d="M 144,168" fill="green" stroke="black" stroke-width="1" /><path d="M 106,168 107,169 106,169 107,169 107,169" fill="green" stroke="black" stroke-width="1" /><path d="M 12,168 12,169" fill="green" stroke="black" stroke-width="1" /><path d="M 144,167" fill="green" stroke="black" stroke-width="1" /><path d="M 125,167 126,167 125,168 126,168 125,169 125,171 126,171 125,172 125,173 126,173 125,174 126,174 125,175 125,176 126,176 125,177 126,177 125,178 126,178 125,179 126,179 125,180 125,181 126,181 125,182 125,183 125,184 124,183 110,183 124,183 125,184 125,186 126,186 125,187 125,188 126,188 125,189 126,189 125,190 126,190 125,191 125,192 126,192 125,193 125,194 126,194 125,195 125,196 126,196 125,197 126,197 125,198 125,199 126,199 125,200 125,201 126,201 125,202 126,202 125,203 125,203 127,203 127,204 127,203 126,203 125,203 126,202 125,202 126,201 125,201 126,200 125,200 126,199 125,199 126,198 125,198 126,197 125,197 126,196 125,196 126,195 125,195 126,194 125,194 126,193 125,193 126,192 125,192 125,191 126,191 126,190 125,190 126,189 126,188 125,188 126,187 125,187 126,186 125,186 126,185 125,185 125,184 126,183 127,183 127,184 127,183 126,183 126,184 125,183 125,183 126,182 125,182 126,181 125,181 125,180 126,180 126,179 125,179 126,178 125,178 126,177 126,176 125,176 125,175 126,175 126,174 125,174 126,173 125,173 126,172 125,172 126,171 125,171 126,170 125,170 125,169 126,169 126,168 125,168 126,167 126,167" fill="green" stroke="black" stroke-width="1" /><path d="M 12,167" fill="green" stroke="black" stroke-width="1" /><path d="M 140,165 140,166 141,165 141,165 142,166 142,165 143,165 144,166 143,166 143,165 142,165 142,166 141,165" fill="green" stroke="black" stroke-width="1" /><path d="M 136,165 136,166 137,165 137,165 138,166 138,165 139,165 139,166 139,165 138,165 138,166 137,165" fill="green" stroke="black" stroke-width="1" /><path d="M 132,165 132,166 133,165 133,165 134,166 134,165 135,165 135,166 135,165 134,165 134,166 133,165" fill="green" stroke="black" stroke-width="1" /><path d="M 128,165 128,166 129,165 129,165 130,166 130,165 131,165 131,166 131,165 130,165 130,166 129,165" fill="green" stroke="black" stroke-width="1" /><path d="M 122,165 122,165 123,166 123,165" fill="green" stroke="black" stroke-width="1" /><path d="M 120,165 120,165 121,166 121,165" fill="green" stroke="black" stroke-width="1" /><path d="M 118,165 118,165 119,166 119,165" fill="green" stroke="black" stroke-width="1" /><path d="M 116,165 116,165 117,166 117,165" fill="green" stroke="black" stroke-width="1" /><path d="M 114,165 114,165 115,166 115,165" fill="green" stroke="black" stroke-width="1" /><path d="M 112,165 112,165 113,166 113,165" fill="green" stroke="black" stroke-width="1" /><path d="M 98,165 98,165 99,166 99,165" fill="green" stroke="black" stroke-width="1" /><path d="M 93,165 93,166 93,165 94,166 94,165 95,165 95,166 96,165 96,165 97,166 97,165 96,165 95,166 95,165 94,165 94,166 93,165" fill="green" stroke="black" stroke-width="1" /><path d="M 24,165 25,165 25,166 25,165" fill="green" stroke="black" stroke-width="1" /><path d="M 22,165 23,165 23,166 23,165" fill="green" stroke="black" stroke-width="1" /><path d="M 20,165 21,165 21,166 21,165" fill="green" stroke="black" stroke-width="1" /><path d="M 18,165 19,165 19,166 19,165" fill="green" stroke="black" stroke-width="1" /><path d="M 12,165 12,166 13,166 13,165 14,165 14,166 15,165 15,165 16,166 16,165 17,165 17,166 17,165 16,165 16,166 15,165 15,165 14,166 14,165 13,165 13,166 12,165" fill="green" stroke="black" stroke-width="1" /><path d="M 144,163 144,164" fill="green" stroke="black" stroke-width="1" /><path d="M 106,163 107,164 107,164 106,165 102,165 101,166 101,165 100,165 100,166 100,165 101,165 101,166 102,165 106,165 106,166 106,166 107,167 106,167 107,167 107,167 106,166 106,166 107,165 107,165 108,166 108,165 109,165 109,166 110,165 110,165 111,166 111,165 110,165 109,166 109,165 108,165 108,166 107,165 107,165 106,165 107,164 107,163" fill="green" stroke="black" stroke-width="1" /><path d="M 144,162" fill="green" stroke="black" stroke-width="1" /><path d="M 12,162 12,164" fill="green" stroke="black" stroke-width="1" /><path d="M 144,161" fill="green" stroke="black" stroke-width="1" /><path d="M 106,160 107,161 107,161 106,162 106,162 106,162 107,161 107,161" fill="green" stroke="black" stroke-width="1" /><path d="M 12,160 12,161" fill="green" stroke="black" stroke-width="1" /><path d="M 144,160" fill="green" stroke="black" stroke-width="1" /><path d="M 12,159 12,159" fill="green" stroke="black" stroke-width="1" /><path d="M 144,158" fill="green" stroke="black" stroke-width="1" /><path d="M 12,158" fill="green" stroke="black" stroke-width="1" /><path d="M 144,157" fill="green" stroke="black" stroke-width="1" /><path d="M 20,157 20,158 19,158 18,159 18,160 18,160 20,160 20,160 21,158" fill="green" stroke="black" stroke-width="1" /><path d="M 144,156" fill="green" stroke="black" stroke-width="1" /><path d="M 12,156 12,157" fill="green" stroke="black" stroke-width="1" /><path d="M 3,156 4,156 4,157 8,157 9,156 9,156 9,156 8,157 8,156 7,157 7,156 6,156 6,157 5,156 5,156 4,157" fill="green" stroke="black" stroke-width="1" /><path d="M 144,155" fill="green" stroke="black" stroke-width="1" /><path d="M 6,155" fill="green" stroke="black" stroke-width="1" /><path d="M 12,155 12,155" fill="green" stroke="black" stroke-width="1" /><path d="M 144,154" fill="green" stroke="black" stroke-width="1" /><path d="M 12,154" fill="green" stroke="black" stroke-width="1" /><path d="M 144,153" fill="green" stroke="black" stroke-width="1" /><path d="M 3,153 4,154 4,154 5,153 6,154 7,153 7,154 8,154 8,153 4,153 4,154" fill="green" stroke="black" stroke-width="1" /><path d="M 12,152 12,153" fill="green" stroke="black" stroke-width="1" /><path d="M 144,152" fill="green" stroke="black" stroke-width="1" /><path d="M 12,151 12,151" fill="green" stroke="black" stroke-width="1" /><path d="M 144,150" fill="green" stroke="black" stroke-width="1" /><path d="M 12,150" fill="green" stroke="black" stroke-width="1" /><path d="M 144,149" fill="green" stroke="black" stroke-width="1" /><path d="M 12,149" fill="green" stroke="black" stroke-width="1" /><path d="M 144,148" fill="green" stroke="black" stroke-width="1" /><path d="M 12,148" fill="green" stroke="black" stroke-width="1" /><path d="M 144,147" fill="green" stroke="black" stroke-width="1" /><path d="M 125,147 125,148 126,148 125,149 125,150 126,150 125,151 125,152 126,152 125,153 125,154 126,154 125,155 126,155 125,156 125,157 126,157 125,158 125,159 126,159 125,160 126,160 125,161 125,162 126,162 125,163 126,163 125,164 125,165 125,166 124,165 124,165 124,166 124,165 125,166 125,165 126,166 126,165 127,165 127,166 127,165 126,165 126,166 125,165 125,164 126,164 126,163 125,163 126,162 125,162 125,161 126,161 126,160 125,160 126,159 125,159 126,158 125,158 126,157 125,157 125,156 126,156 126,155 125,155 126,154 125,154 126,153 125,153 126,152 125,152 126,151 125,151 126,150 125,150 126,149 125,149 126,148 125,148 126,147" fill="green" stroke="black" stroke-width="1" /><path d="M 124,146" fill="green" stroke="black" stroke-width="1" /><path d="M 123,146" fill="green" stroke="black" stroke-width="1" /><path d="M 143,145 144,146 144,145 143,146" fill="green" stroke="black" stroke-width="1" /><path d="M 141,145 141,146 141,145 142,146" fill="green" stroke="black" stroke-width="1" /><path d="M 140,145 140,146" fill="green" stroke="black" stroke-width="1" /><path d="M 138,145 138,146 138,145 139,146" fill="green" stroke="black" stroke-width="1" /><path d="M 137,145 137,146" fill="green" stroke="black" stroke-width="1" /><path d="M 135,145 135,146 135,145 136,146" fill="green" stroke="black" stroke-width="1" /><path d="M 134,145 134,146" fill="green" stroke="black" stroke-width="1" /><path d="M 132,145 132,146 132,145 133,146" fill="green" stroke="black" stroke-width="1" /><path d="M 131,145 131,146" fill="green" stroke="black" stroke-width="1" /><path d="M 129,145 129,146 129,145 130,146" fill="green" stroke="black" stroke-width="1" /><path d="M 127,145 127,146 127,145 128,146" fill="green" stroke="black" stroke-width="1" /><path d="M 122,145 122,146" fill="green" stroke="black" stroke-width="1" /><path d="M 35,145 34,146" fill="green" stroke="black" stroke-width="1" /><path d="M 31,145 30,146 31,145 31,146" fill="green" stroke="black" stroke-width="1" /><path d="M 29,145 29,146" fill="green" stroke="black" stroke-width="1" /><path d="M 28,145 27,146 28,145 28,146" fill="green" stroke="black" stroke-width="1" /><path d="M 26,145 26,146" fill="green" stroke="black" stroke-width="1" /><path d="M 25,145 24,146 25,145 25,146" fill="green" stroke="black" stroke-width="1" /><path d="M 23,145 23,146" fill="green" stroke="black" stroke-width="1" /><path d="M 22,145 21,146 22,145 22,146" fill="green" stroke="black" stroke-width="1" /><path d="M 20,145 20,146" fill="green" stroke="black" stroke-width="1" /><path d="M 19,145 18,146 19,145 19,146" fill="green" stroke="black" stroke-width="1" /><path d="M 17,145 17,146" fill="green" stroke="black" stroke-width="1" /><path d="M 16,145 15,146 16,145 16,146" fill="green" stroke="black" stroke-width="1" /><path d="M 14,145 14,146" fill="green" stroke="black" stroke-width="1" /><path d="M 33,145 32,145 32,146 33,147 33,146 33,146 33,145" fill="green" stroke="black" stroke-width="1" /><path d="M 12,145 12,147 12,146 13,146 13,146 13,146 12,145" fill="green" stroke="black" stroke-width="1" /><path d="M 144,144" fill="green" stroke="black" stroke-width="1" /><path d="M 144,143" fill="green" stroke="black" stroke-width="1" /><path d="M 12,142 12,144" fill="green" stroke="black" stroke-width="1" /><path d="M 144,141" fill="green" stroke="black" stroke-width="1" /><path d="M 33,141 32,141 33,142 32,142 33,143 33,143 32,144 33,144 33,143 32,142 33,142 32,141" fill="green" stroke="black" stroke-width="1" /><path d="M 12,141 12,141" fill="green" stroke="black" stroke-width="1" /><path d="M 144,140" fill="green" stroke="black" stroke-width="1" /><path d="M 12,140" fill="green" stroke="black" stroke-width="1" /><path d="M 144,139" fill="green" stroke="black" stroke-width="1" /><path d="M 144,138" fill="green" stroke="black" stroke-width="1" /><path d="M 12,138 12,139" fill="green" stroke="black" stroke-width="1" /><path d="M 144,137" fill="green" stroke="black" stroke-width="1" /><path d="M 32,137 32,137 33,138 32,138 33,139 33,139 32,140 33,140 33,139 32,138 33,138 32,137 33,137" fill="green" stroke="black" stroke-width="1" /><path d="M 12,137 12,137" fill="green" stroke="black" stroke-width="1" /><path d="M 144,136" fill="green" stroke="black" stroke-width="1" /><path d="M 3,136 4,137 5,137 5,138 7,138 8,137 8,137 9,136 9,137 8,136 8,137 8,137 7,137 6,138 5,138 5,137 4,137" fill="green" stroke="black" stroke-width="1" /><path d="M 9,135" fill="green" stroke="black" stroke-width="1" /><path d="M 144,135" fill="green" stroke="black" stroke-width="1" /><path d="M 32,135 33,135 33,136 33,135" fill="green" stroke="black" stroke-width="1" /><path d="M 12,135 12,136" fill="green" stroke="black" stroke-width="1" /><path d="M 12,134" fill="green" stroke="black" stroke-width="1" /><path d="M 6,134 6,134 6,135 7,134 7,135 8,134 8,135 9,134 8,134 8,134 7,134 7,134 6,134" fill="green" stroke="black" stroke-width="1" /><path d="M 4,134 4,134 4,135 4,134" fill="green" stroke="black" stroke-width="1" /><path d="M 144,133" fill="green" stroke="black" stroke-width="1" /><path d="M 12,132 12,133" fill="green" stroke="black" stroke-width="1" /><path d="M 144,131 144,132" fill="green" stroke="black" stroke-width="1" /><path d="M 12,131 12,131" fill="green" stroke="black" stroke-width="1" /><path d="M 144,130" fill="green" stroke="black" stroke-width="1" /><path d="M 12,130" fill="green" stroke="black" stroke-width="1" /><path d="M 144,129" fill="green" stroke="black" stroke-width="1" /><path d="M 33,129 32,129 33,130 33,131 32,131 33,132 32,132 33,133 32,133 32,134 33,134 32,133 33,133 32,132 33,132 33,130 32,129" fill="green" stroke="black" stroke-width="1" /><path d="M 12,129 12,129" fill="green" stroke="black" stroke-width="1" /><path d="M 144,128" fill="green" stroke="black" stroke-width="1" /><path d="M 12,128" fill="green" stroke="black" stroke-width="1" /><path d="M 141,126 142,126" fill="green" stroke="black" stroke-width="1" /><path d="M 140,126 140,126" fill="green" stroke="black" stroke-width="1" /><path d="M 138,126 139,126" fill="green" stroke="black" stroke-width="1" /><path d="M 137,126 137,126" fill="green" stroke="black" stroke-width="1" /><path d="M 135,126 136,126" fill="green" stroke="black" stroke-width="1" /><path d="M 134,126 134,126" fill="green" stroke="black" stroke-width="1" /><path d="M 132,126 133,126" fill="green" stroke="black" stroke-width="1" /><path d="M 131,126 131,126" fill="green" stroke="black" stroke-width="1" /><path d="M 129,126 130,126" fill="green" stroke="black" stroke-width="1" /><path d="M 128,126 128,126" fill="green" stroke="black" stroke-width="1" /><path d="M 45,126 45,126" fill="green" stroke="black" stroke-width="1" /><path d="M 43,126 44,126" fill="green" stroke="black" stroke-width="1" /><path d="M 42,126 42,126" fill="green" stroke="black" stroke-width="1" /><path d="M 40,126 41,126" fill="green" stroke="black" stroke-width="1" /><path d="M 39,126 39,126" fill="green" stroke="black" stroke-width="1" /><path d="M 37,126 38,126" fill="green" stroke="black" stroke-width="1" /><path d="M 36,126 36,126" fill="green" stroke="black" stroke-width="1" /><path d="M 34,126 35,126" fill="green" stroke="black" stroke-width="1" /><path d="M 31,126 31,126" fill="green" stroke="black" stroke-width="1" /><path d="M 29,126 30,126" fill="green" stroke="black" stroke-width="1" /><path d="M 28,126 28,126" fill="green" stroke="black" stroke-width="1" /><path d="M 26,126 27,126" fill="green" stroke="black" stroke-width="1" /><path d="M 25,126 25,126" fill="green" stroke="black" stroke-width="1" /><path d="M 23,126 24,126" fill="green" stroke="black" stroke-width="1" /><path d="M 22,126 22,126" fill="green" stroke="black" stroke-width="1" /><path d="M 20,126 21,126" fill="green" stroke="black" stroke-width="1" /><path d="M 19,126 19,126" fill="green" stroke="black" stroke-width="1" /><path d="M 17,126 18,126" fill="green" stroke="black" stroke-width="1" /><path d="M 16,126 16,126" fill="green" stroke="black" stroke-width="1" /><path d="M 14,126 15,126" fill="green" stroke="black" stroke-width="1" /><path d="M 33,126 32,126 33,127 32,127 32,128 33,128 32,127 33,126" fill="green" stroke="black" stroke-width="1" /><path d="M 144,125 143,126 143,126 144,127 144,127 144,127 143,126 143,126" fill="green" stroke="black" stroke-width="1" /><path d="M 12,125 12,127 13,126 13,126 13,126 12,126" fill="green" stroke="black" stroke-width="1" /><path d="M 144,124" fill="green" stroke="black" stroke-width="1" /><path d="M 32,124 32,124 33,125 32,124 33,124" fill="green" stroke="black" stroke-width="1" /><path d="M 12,124" fill="green" stroke="black" stroke-width="1" /><path d="M 144,123" fill="green" stroke="black" stroke-width="1" /><path d="M 144,122" fill="green" stroke="black" stroke-width="1" /><path d="M 12,122 12,123" fill="green" stroke="black" stroke-width="1" /><path d="M 144,120 144,121" fill="green" stroke="black" stroke-width="1" /><path d="M 33,120 32,120 32,121 33,122 33,123 33,122 32,121 33,121 32,120" fill="green" stroke="black" stroke-width="1" /><path d="M 144,119" fill="green" stroke="black" stroke-width="1" /><path d="M 12,119 12,121" fill="green" stroke="black" stroke-width="1" /><path d="M 33,118 32,118 33,119" fill="green" stroke="black" stroke-width="1" /><path d="M 12,118" fill="green" stroke="black" stroke-width="1" /><path d="M 144,117" fill="green" stroke="black" stroke-width="1" /><path d="M 46,117 45,117 45,119 46,119 47,118 47,118 47,118 46,117" fill="green" stroke="black" stroke-width="1" /><path d="M 144,116" fill="green" stroke="black" stroke-width="1" /><path d="M 12,116 12,117" fill="green" stroke="black" stroke-width="1" /><path d="M 32,116 32,116 33,117 32,116 33,116" fill="green" stroke="black" stroke-width="1" /><path d="M 144,115" fill="green" stroke="black" stroke-width="1" /><path d="M 12,115 12,115" fill="green" stroke="black" stroke-width="1" /><path d="M 4,115 4,115 4,116 4,115 5,116 5,115 6,115 6,116 7,116 8,115 8,116 8,115 9,115 9,115 9,115 8,115 8,115 7,115 7,115 6,115 6,115 5,115 5,115" fill="green" stroke="black" stroke-width="1" /><path d="M 144,114" fill="green" stroke="black" stroke-width="1" /><path d="M 37,114 36,115 37,115 37,115 38,116 38,116 39,117 41,117 41,117 42,117 42,118 43,118 44,119 44,118 44,117 45,116 45,116 44,115 43,116 43,116 42,116 42,115 41,114 39,114 39,115 38,114" fill="green" stroke="black" stroke-width="1" /><path d="M 12,114" fill="green" stroke="black" stroke-width="1" /><path d="M 6,114" fill="green" stroke="black" stroke-width="1" /><path d="M 144,113" fill="green" stroke="black" stroke-width="1" /><path d="M 4,113 4,113" fill="green" stroke="black" stroke-width="1" /><path d="M 12,113" fill="green" stroke="black" stroke-width="1" /><path d="M 144,112" fill="green" stroke="black" stroke-width="1" /><path d="M 12,112" fill="green" stroke="black" stroke-width="1" /><path d="M 51,111 51,112" fill="green" stroke="black" stroke-width="1" /><path d="M 144,111" fill="green" stroke="black" stroke-width="1" /><path d="M 51,110" fill="green" stroke="black" stroke-width="1" /><path d="M 12,110 12,111" fill="green" stroke="black" stroke-width="1" /><path d="M 144,108 144,109" fill="green" stroke="black" stroke-width="1" /><path d="M 144,107" fill="green" stroke="black" stroke-width="1" /><path d="M 12,107 12,109" fill="green" stroke="black" stroke-width="1" /><path d="M 144,106" fill="green" stroke="black" stroke-width="1" /><path d="M 144,104" fill="green" stroke="black" stroke-width="1" /><path d="M 12,104 12,105 13,105 12,106 13,106 13,105 12,105" fill="green" stroke="black" stroke-width="1" /><path d="M 12,103 12,103" fill="green" stroke="black" stroke-width="1" /><path d="M 144,102 144,103" fill="green" stroke="black" stroke-width="1" /><path d="M 144,101" fill="green" stroke="black" stroke-width="1" /><path d="M 12,101 12,102" fill="green" stroke="black" stroke-width="1" /><path d="M 144,100" fill="green" stroke="black" stroke-width="1" /><path d="M 144,99" fill="green" stroke="black" stroke-width="1" /><path d="M 12,99 12,100" fill="green" stroke="black" stroke-width="1" /><path d="M 144,98" fill="green" stroke="black" stroke-width="1" /><path d="M 12,97 12,98" fill="green" stroke="black" stroke-width="1" /><path d="M 144,96 144,97" fill="green" stroke="black" stroke-width="1" /><path d="M 4,96 4,97 4,96 5,97 5,97 6,96 6,96 7,97 7,96 8,96 9,97 9,97 9,96" fill="green" stroke="black" stroke-width="1" /><path d="M 12,96 12,96" fill="green" stroke="black" stroke-width="1" /><path d="M 144,95" fill="green" stroke="black" stroke-width="1" /><path d="M 3,95" fill="green" stroke="black" stroke-width="1" /><path d="M 6,94 6,94 6,95 6,94 7,94 6,94" fill="green" stroke="black" stroke-width="1" /><path d="M 144,93" fill="green" stroke="black" stroke-width="1" /><path d="M 26,93 25,94 25,94 25,95 25,95 26,95 27,95 27,94 26,93" fill="green" stroke="black" stroke-width="1" /><path d="M 12,93 12,95" fill="green" stroke="black" stroke-width="1" /><path d="M 8,93 8,94 9,94 9,93" fill="green" stroke="black" stroke-width="1" /><path d="M 4,93 4,94 4,94" fill="green" stroke="black" stroke-width="1" /><path d="M 28,93 28,93 28,94 28,94 29,95 29,94 30,94 30,94 29,93" fill="green" stroke="black" stroke-width="1" /><path d="M 12,92 12,92" fill="green" stroke="black" stroke-width="1" /><path d="M 144,91 144,92" fill="green" stroke="black" stroke-width="1" /><path d="M 33,91 33,92" fill="green" stroke="black" stroke-width="1" /><path d="M 144,90" fill="green" stroke="black" stroke-width="1" /><path d="M 12,90 12,91" fill="green" stroke="black" stroke-width="1" /><path d="M 144,89" fill="green" stroke="black" stroke-width="1" /><path d="M 32,89 31,89 31,90 33,90 33,90 33,89 33,89" fill="green" stroke="black" stroke-width="1" /><path d="M 144,88" fill="green" stroke="black" stroke-width="1" /><path d="M 33,88" fill="green" stroke="black" stroke-width="1" /><path d="M 144,87" fill="green" stroke="black" stroke-width="1" /><path d="M 124,86" fill="green" stroke="black" stroke-width="1" /><path d="M 14,86" fill="green" stroke="black" stroke-width="1" /><path d="M 144,85 144,86" fill="green" stroke="black" stroke-width="1" /><path d="M 142,85 142,86" fill="green" stroke="black" stroke-width="1" /><path d="M 141,85 140,86" fill="green" stroke="black" stroke-width="1" /><path d="M 139,85 139,86" fill="green" stroke="black" stroke-width="1" /><path d="M 138,85 137,86" fill="green" stroke="black" stroke-width="1" /><path d="M 136,85 136,86" fill="green" stroke="black" stroke-width="1" /><path d="M 135,85 134,86" fill="green" stroke="black" stroke-width="1" /><path d="M 133,85 133,86" fill="green" stroke="black" stroke-width="1" /><path d="M 132,85 131,86" fill="green" stroke="black" stroke-width="1" /><path d="M 130,85 130,86" fill="green" stroke="black" stroke-width="1" /><path d="M 129,85 128,86" fill="green" stroke="black" stroke-width="1" /><path d="M 127,85 127,86" fill="green" stroke="black" stroke-width="1" /><path d="M 123,85 123,86" fill="green" stroke="black" stroke-width="1" /><path d="M 44,85 44,86" fill="green" stroke="black" stroke-width="1" /><path d="M 38,85" fill="green" stroke="black" stroke-width="1" /><path d="M 30,85 30,86" fill="green" stroke="black" stroke-width="1" /><path d="M 28,85 29,86" fill="green" stroke="black" stroke-width="1" /><path d="M 27,85 27,86" fill="green" stroke="black" stroke-width="1" /><path d="M 25,85 26,86" fill="green" stroke="black" stroke-width="1" /><path d="M 24,85 24,86" fill="green" stroke="black" stroke-width="1" /><path d="M 22,85 23,86" fill="green" stroke="black" stroke-width="1" /><path d="M 21,85 21,86" fill="green" stroke="black" stroke-width="1" /><path d="M 19,85 20,86" fill="green" stroke="black" stroke-width="1" /><path d="M 18,85 18,86" fill="green" stroke="black" stroke-width="1" /><path d="M 16,85 17,86" fill="green" stroke="black" stroke-width="1" /><path d="M 15,85 15,86" fill="green" stroke="black" stroke-width="1" /><path d="M 12,85 12,85 13,86 12,86 12,89 12,86 13,86 13,85" fill="green" stroke="black" stroke-width="1" /><path d="M 144,84" fill="green" stroke="black" stroke-width="1" /><path d="M 33,84 32,84 33,85 33,85 32,86 32,86 31,85 32,86 32,86 33,86 33,87 33,86 32,86 33,85 33,85 32,84" fill="green" stroke="black" stroke-width="1" /><path d="M 12,84" fill="green" stroke="black" stroke-width="1" /><path d="M 144,83" fill="green" stroke="black" stroke-width="1" /><path d="M 144,82" fill="green" stroke="black" stroke-width="1" /><path d="M 33,82 33,82 32,83 33,83" fill="green" stroke="black" stroke-width="1" /><path d="M 12,82 12,83" fill="green" stroke="black" stroke-width="1" /><path d="M 12,81" fill="green" stroke="black" stroke-width="1" /><path d="M 144,80" fill="green" stroke="black" stroke-width="1" /><path d="M 33,80 32,80 33,81 32,80" fill="green" stroke="black" stroke-width="1" /><path d="M 12,79 12,80" fill="green" stroke="black" stroke-width="1" /><path d="M 144,78 144,79" fill="green" stroke="black" stroke-width="1" /><path d="M 12,78 12,78" fill="green" stroke="black" stroke-width="1" /><path d="M 144,77" fill="green" stroke="black" stroke-width="1" /><path d="M 12,77" fill="green" stroke="black" stroke-width="1" /><path d="M 144,76" fill="green" stroke="black" stroke-width="1" /><path d="M 12,76" fill="green" stroke="black" stroke-width="1" /><path d="M 144,75" fill="green" stroke="black" stroke-width="1" /><path d="M 12,75" fill="green" stroke="black" stroke-width="1" /><path d="M 5,74 5,75 5,75 4,75 3,76 3,77 5,75 6,75 8,77 8,78 8,78 7,79 4,79 3,78 3,78 3,79 8,79 8,76 8,77 7,76 7,75 7,75 6,75" fill="green" stroke="black" stroke-width="1" /><path d="M 144,73 144,74" fill="green" stroke="black" stroke-width="1" /><path d="M 12,73 12,74" fill="green" stroke="black" stroke-width="1" /><path d="M 144,72" fill="green" stroke="black" stroke-width="1" /><path d="M 12,72" fill="green" stroke="black" stroke-width="1" /><path d="M 144,70 144,71" fill="green" stroke="black" stroke-width="1" /><path d="M 12,70 12,71" fill="green" stroke="black" stroke-width="1" /><path d="M 144,69" fill="green" stroke="black" stroke-width="1" /><path d="M 12,69" fill="green" stroke="black" stroke-width="1" /><path d="M 144,68" fill="green" stroke="black" stroke-width="1" /><path d="M 12,67 12,68" fill="green" stroke="black" stroke-width="1" /><path d="M 144,67 144,67" fill="green" stroke="black" stroke-width="1" /><path d="M 141,66" fill="green" stroke="black" stroke-width="1" /><path d="M 140,66" fill="green" stroke="black" stroke-width="1" /><path d="M 138,66" fill="green" stroke="black" stroke-width="1" /><path d="M 137,66" fill="green" stroke="black" stroke-width="1" /><path d="M 135,66" fill="green" stroke="black" stroke-width="1" /><path d="M 134,66" fill="green" stroke="black" stroke-width="1" /><path d="M 132,66" fill="green" stroke="black" stroke-width="1" /><path d="M 131,66" fill="green" stroke="black" stroke-width="1" /><path d="M 129,66" fill="green" stroke="black" stroke-width="1" /><path d="M 55,66" fill="green" stroke="black" stroke-width="1" /><path d="M 30,66" fill="green" stroke="black" stroke-width="1" /><path d="M 28,66" fill="green" stroke="black" stroke-width="1" /><path d="M 27,66" fill="green" stroke="black" stroke-width="1" /><path d="M 25,66" fill="green" stroke="black" stroke-width="1" /><path d="M 24,66" fill="green" stroke="black" stroke-width="1" /><path d="M 22,66" fill="green" stroke="black" stroke-width="1" /><path d="M 21,66" fill="green" stroke="black" stroke-width="1" /><path d="M 19,66" fill="green" stroke="black" stroke-width="1" /><path d="M 18,66" fill="green" stroke="black" stroke-width="1" /><path d="M 16,66" fill="green" stroke="black" stroke-width="1" /><path d="M 15,66" fill="green" stroke="black" stroke-width="1" /><path d="M 12,66 12,66 13,66 13,66 14,66 13,66 13,66" fill="green" stroke="black" stroke-width="1" /><path d="M 144,65 143,66" fill="green" stroke="black" stroke-width="1" /><path d="M 144,64" fill="green" stroke="black" stroke-width="1" /><path d="M 12,64 12,65" fill="green" stroke="black" stroke-width="1" /><path d="M 144,63" fill="green" stroke="black" stroke-width="1" /><path d="M 12,63 12,63" fill="green" stroke="black" stroke-width="1" /><path d="M 12,62" fill="green" stroke="black" stroke-width="1" /><path d="M 144,61" fill="green" stroke="black" stroke-width="1" /><path d="M 51,61 51,61" fill="green" stroke="black" stroke-width="1" /><path d="M 12,60 12,61" fill="green" stroke="black" stroke-width="1" /><path d="M 51,60" fill="green" stroke="black" stroke-width="1" /><path d="M 144,59 144,60" fill="green" stroke="black" stroke-width="1" /><path d="M 32,59 32,59 33,60 32,60 33,61 32,61 33,62 33,61 32,60 33,60 32,59 33,59" fill="green" stroke="black" stroke-width="1" /><path d="M 12,59 12,59" fill="green" stroke="black" stroke-width="1" /><path d="M 144,58" fill="green" stroke="black" stroke-width="1" /><path d="M 51,58 51,58 51,59 51,58" fill="green" stroke="black" stroke-width="1" /><path d="M 12,58" fill="green" stroke="black" stroke-width="1" /><path d="M 144,57" fill="green" stroke="black" stroke-width="1" /><path d="M 51,57" fill="green" stroke="black" stroke-width="1" /><path d="M 32,57 32,57 33,58 32,57 33,57" fill="green" stroke="black" stroke-width="1" /><path d="M 12,57" fill="green" stroke="black" stroke-width="1" /><path d="M 144,56" fill="green" stroke="black" stroke-width="1" /><path d="M 51,56" fill="green" stroke="black" stroke-width="1" /><path d="M 12,56" fill="green" stroke="black" stroke-width="1" /><path d="M 51,55" fill="green" stroke="black" stroke-width="1" /><path d="M 8,55" fill="green" stroke="black" stroke-width="1" /><path d="M 7,55" fill="green" stroke="black" stroke-width="1" /><path d="M 144,54 144,55" fill="green" stroke="black" stroke-width="1" /><path d="M 4,54 4,55 3,55 3,57 4,57 4,58 4,58 5,58 5,59 6,58 8,58 9,57 9,56 8,56 8,57 8,58 7,58 7,58 5,58 5,58 4,58 3,57 4,56 3,56 4,55" fill="green" stroke="black" stroke-width="1" /><path d="M 144,53" fill="green" stroke="black" stroke-width="1" /><path d="M 12,53 12,55" fill="green" stroke="black" stroke-width="1" /><path d="M 51,53 51,53 51,54 51,53" fill="green" stroke="black" stroke-width="1" /><path d="M 144,52" fill="green" stroke="black" stroke-width="1" /><path d="M 51,52 51,52" fill="green" stroke="black" stroke-width="1" /><path d="M 12,52 12,52" fill="green" stroke="black" stroke-width="1" /><path d="M 51,51" fill="green" stroke="black" stroke-width="1" /><path d="M 12,51" fill="green" stroke="black" stroke-width="1" /><path d="M 144,50" fill="green" stroke="black" stroke-width="1" /><path d="M 51,50" fill="green" stroke="black" stroke-width="1" /><path d="M 12,50" fill="green" stroke="black" stroke-width="1" /><path d="M 144,49 144,49" fill="green" stroke="black" stroke-width="1" /><path d="M 32,49 32,49 33,50 32,50 33,51 32,51 33,52 32,52 33,53 32,53 33,54 32,54 33,55 32,55 32,56 33,56 32,55 33,55 32,54 33,54 32,53 33,53 32,52 33,52 32,51 33,51 32,50 33,50 32,49 33,49" fill="green" stroke="black" stroke-width="1" /><path d="M 55,48" fill="green" stroke="black" stroke-width="1" /><path d="M 53,48" fill="green" stroke="black" stroke-width="1" /><path d="M 51,48 51,49" fill="green" stroke="black" stroke-width="1" /><path d="M 14,48" fill="green" stroke="black" stroke-width="1" /><path d="M 31,48" fill="green" stroke="black" stroke-width="1" /><path d="M 12,47 13,48 12,48 12,49 12,48 13,48" fill="green" stroke="black" stroke-width="1" /><path d="M 51,47 51,47" fill="green" stroke="black" stroke-width="1" /><path d="M 144,46 144,48" fill="green" stroke="black" stroke-width="1" /><path d="M 51,46" fill="green" stroke="black" stroke-width="1" /><path d="M 12,46 12,46" fill="green" stroke="black" stroke-width="1" /><path d="M 33,45 33,46 32,46 33,47 32,47 33,48 32,47 33,47 32,46 33,46" fill="green" stroke="black" stroke-width="1" /><path d="M 12,45" fill="green" stroke="black" stroke-width="1" /><path d="M 144,44 144,45" fill="green" stroke="black" stroke-width="1" /><path d="M 51,44 51,44 51,45" fill="green" stroke="black" stroke-width="1" /><path d="M 12,44 12,44" fill="green" stroke="black" stroke-width="1" /><path d="M 144,43" fill="green" stroke="black" stroke-width="1" /><path d="M 51,43" fill="green" stroke="black" stroke-width="1" /><path d="M 144,42" fill="green" stroke="black" stroke-width="1" /><path d="M 144,41" fill="green" stroke="black" stroke-width="1" /><path d="M 51,41 51,42" fill="green" stroke="black" stroke-width="1" /><path d="M 33,41 32,41 33,42 32,42 33,43 32,43 32,44 33,44 32,43 33,43 32,42 33,42" fill="green" stroke="black" stroke-width="1" /><path d="M 144,40" fill="green" stroke="black" stroke-width="1" /><path d="M 12,40 12,43" fill="green" stroke="black" stroke-width="1" /><path d="M 4,40 4,40 4,40 5,40 6,40 6,40 7,40 7,40 8,40 8,40 9,40 9,40" fill="green" stroke="black" stroke-width="1" /><path d="M 144,39" fill="green" stroke="black" stroke-width="1" /><path d="M 51,39 51,39 51,40 51,39" fill="green" stroke="black" stroke-width="1" /><path d="M 33,39 32,39 33,40" fill="green" stroke="black" stroke-width="1" /><path d="M 12,39" fill="green" stroke="black" stroke-width="1" /><path d="M 9,39" fill="green" stroke="black" stroke-width="1" /><path d="M 144,38" fill="green" stroke="black" stroke-width="1" /><path d="M 51,38" fill="green" stroke="black" stroke-width="1" /><path d="M 12,38" fill="green" stroke="black" stroke-width="1" /><path d="M 51,37" fill="green" stroke="black" stroke-width="1" /><path d="M 32,37 32,38 33,38 32,37 33,37" fill="green" stroke="black" stroke-width="1" /><path d="M 12,37" fill="green" stroke="black" stroke-width="1" /><path d="M 144,36" fill="green" stroke="black" stroke-width="1" /><path d="M 7,36 7,37 7,37 5,37 5,37 4,38 4,38 4,38 6,38 6,38 6,38 7,37 8,37 8,38 8,38 9,38 9,37 8,37 8,37" fill="green" stroke="black" stroke-width="1" /><path d="M 51,36" fill="green" stroke="black" stroke-width="1" /><path d="M 12,36" fill="green" stroke="black" stroke-width="1" /><path d="M 144,35" fill="green" stroke="black" stroke-width="1" /><path d="M 51,35 51,35" fill="green" stroke="black" stroke-width="1" /><path d="M 144,34" fill="green" stroke="black" stroke-width="1" /><path d="M 12,34 12,35" fill="green" stroke="black" stroke-width="1" /><path d="M 51,34" fill="green" stroke="black" stroke-width="1" /><path d="M 51,33" fill="green" stroke="black" stroke-width="1" /><path d="M 12,33 12,33" fill="green" stroke="black" stroke-width="1" /><path d="M 144,32 144,33" fill="green" stroke="black" stroke-width="1" /><path d="M 144,31" fill="green" stroke="black" stroke-width="1" /><path d="M 51,31 51,32 51,31" fill="green" stroke="black" stroke-width="1" /><path d="M 12,31 12,32" fill="green" stroke="black" stroke-width="1" /><path d="M 126,30" fill="green" stroke="black" stroke-width="1" /><path d="M 53,30" fill="green" stroke="black" stroke-width="1" /><path d="M 51,30" fill="green" stroke="black" stroke-width="1" /><path d="M 143,30 143,30 143,30 144,30" fill="green" stroke="black" stroke-width="1" /><path d="M 52,30" fill="green" stroke="black" stroke-width="1" /><path d="M 12,30 13,30 14,30 13,30" fill="green" stroke="black" stroke-width="1" /><path d="M 51,29" fill="green" stroke="black" stroke-width="1" /><path d="M 144,28 144,29" fill="green" stroke="black" stroke-width="1" /><path d="M 51,28" fill="green" stroke="black" stroke-width="1" /><path d="M 12,28 12,29" fill="green" stroke="black" stroke-width="1" /><path d="M 144,27" fill="green" stroke="black" stroke-width="1" /><path d="M 51,27" fill="green" stroke="black" stroke-width="1" /><path d="M 33,27 32,27 33,28 32,28 33,29 33,30 32,30 33,31 32,31 33,32 32,32 33,33 32,33 33,34 32,34 33,35 32,35 33,36 32,35 33,35 32,34 33,34 32,33 33,33 32,32 33,32 32,31 33,30 33,30 33,28 32,27" fill="green" stroke="black" stroke-width="1" /><path d="M 12,27" fill="green" stroke="black" stroke-width="1" /><path d="M 144,25 144,26" fill="green" stroke="black" stroke-width="1" /><path d="M 51,25 51,26" fill="green" stroke="black" stroke-width="1" /><path d="M 33,25 32,25 32,26 33,26" fill="green" stroke="black" stroke-width="1" /><path d="M 12,25 12,26" fill="green" stroke="black" stroke-width="1" /><path d="M 144,24" fill="green" stroke="black" stroke-width="1" /><path d="M 51,24" fill="green" stroke="black" stroke-width="1" /><path d="M 12,24" fill="green" stroke="black" stroke-width="1" /><path d="M 144,22 144,23" fill="green" stroke="black" stroke-width="1" /><path d="M 51,22 51,22 51,23 51,22" fill="green" stroke="black" stroke-width="1" /><path d="M 12,22 12,23" fill="green" stroke="black" stroke-width="1" /><path d="M 8,21" fill="green" stroke="black" stroke-width="1" /><path d="M 6,21 6,22 6,21 7,22 8,22 7,22 7,22 6,21" fill="green" stroke="black" stroke-width="1" /><path d="M 51,21" fill="green" stroke="black" stroke-width="1" /><path d="M 12,21" fill="green" stroke="black" stroke-width="1" /><path d="M 144,20 144,21" fill="green" stroke="black" stroke-width="1" /><path d="M 75,20 74,21 74,22 74,22 74,23 75,23 76,23 77,22 75,20" fill="green" stroke="black" stroke-width="1" /><path d="M 51,20" fill="green" stroke="black" stroke-width="1" /><path d="M 144,19" fill="green" stroke="black" stroke-width="1" /><path d="M 106,19 106,20 107,21 107,20 106,20" fill="green" stroke="black" stroke-width="1" /><path d="M 51,19" fill="green" stroke="black" stroke-width="1" /><path d="M 33,19 32,19 32,20 33,21 33,22 32,22 32,23 33,24 32,23 33,23 32,22 33,22 33,21 32,20 33,20 32,19" fill="green" stroke="black" stroke-width="1" /><path d="M 12,19 12,20" fill="green" stroke="black" stroke-width="1" /><path d="M 144,18" fill="green" stroke="black" stroke-width="1" /><path d="M 8,18 7,19 6,19 6,19 5,19 5,20 3,20 3,21 4,20 4,20 5,21 4,21 5,21 5,21 4,20 5,20 5,20 6,19 7,19 7,19 8,19 8,19 8,19 8,18" fill="green" stroke="black" stroke-width="1" /><path d="M 51,18" fill="green" stroke="black" stroke-width="1" /><path d="M 12,18" fill="green" stroke="black" stroke-width="1" /><path d="M 144,17" fill="green" stroke="black" stroke-width="1" /><path d="M 118,17 117,17 117,18 118,18 119,18 119,19 119,19 120,20 120,20 121,19 121,19 121,18 121,18 121,17 121,17" fill="green" stroke="black" stroke-width="1" /><path d="M 51,17" fill="green" stroke="black" stroke-width="1" /><path d="M 32,17 32,17 33,18 33,17" fill="green" stroke="black" stroke-width="1" /><path d="M 144,16" fill="green" stroke="black" stroke-width="1" /><path d="M 12,16 12,17" fill="green" stroke="black" stroke-width="1" /><path d="M 51,16" fill="green" stroke="black" stroke-width="1" /><path d="M 144,15" fill="green" stroke="black" stroke-width="1" /><path d="M 12,15 12,15" fill="green" stroke="black" stroke-width="1" /><path d="M 144,14" fill="green" stroke="black" stroke-width="1" /><path d="M 51,14 51,14 51,15 51,14" fill="green" stroke="black" stroke-width="1" /><path d="M 12,14" fill="green" stroke="black" stroke-width="1" /><path d="M 106,13 107,14 106,14 107,15 106,15 107,16 106,16 107,17 106,17 107,18 107,17 106,16 107,16 106,15 107,15 106,14 107,14" fill="green" stroke="black" stroke-width="1" /><path d="M 33,13 33,14 32,14 33,15 32,15 33,16 32,15 33,15 32,14 33,14" fill="green" stroke="black" stroke-width="1" /><path d="M 144,13" fill="green" stroke="black" stroke-width="1" /><path d="M 51,13" fill="green" stroke="black" stroke-width="1" /><path d="M 142,12 143,12" fill="green" stroke="black" stroke-width="1" /><path d="M 141,12" fill="green" stroke="black" stroke-width="1" /><path d="M 140,12" fill="green" stroke="black" stroke-width="1" /><path d="M 139,12" fill="green" stroke="black" stroke-width="1" /><path d="M 138,12" fill="green" stroke="black" stroke-width="1" /><path d="M 137,12 137,12" fill="green" stroke="black" stroke-width="1" /><path d="M 136,12" fill="green" stroke="black" stroke-width="1" /><path d="M 135,12" fill="green" stroke="black" stroke-width="1" /><path d="M 134,12" fill="green" stroke="black" stroke-width="1" /><path d="M 133,12" fill="green" stroke="black" stroke-width="1" /><path d="M 131,12 132,12" fill="green" stroke="black" stroke-width="1" /><path d="M 130,12" fill="green" stroke="black" stroke-width="1" /><path d="M 129,12" fill="green" stroke="black" stroke-width="1" /><path d="M 128,12" fill="green" stroke="black" stroke-width="1" /><path d="M 127,12" fill="green" stroke="black" stroke-width="1" /><path d="M 124,12" fill="green" stroke="black" stroke-width="1" /><path d="M 123,12" fill="green" stroke="black" stroke-width="1" /><path d="M 122,12" fill="green" stroke="black" stroke-width="1" /><path d="M 120,12 121,12" fill="green" stroke="black" stroke-width="1" /><path d="M 119,12" fill="green" stroke="black" stroke-width="1" /><path d="M 118,12" fill="green" stroke="black" stroke-width="1" /><path d="M 117,12" fill="green" stroke="black" stroke-width="1" /><path d="M 116,12" fill="green" stroke="black" stroke-width="1" /><path d="M 115,12 115,12" fill="green" stroke="black" stroke-width="1" /><path d="M 114,12" fill="green" stroke="black" stroke-width="1" /><path d="M 113,12" fill="green" stroke="black" stroke-width="1" /><path d="M 112,12" fill="green" stroke="black" stroke-width="1" /><path d="M 111,12" fill="green" stroke="black" stroke-width="1" /><path d="M 109,12 110,12" fill="green" stroke="black" stroke-width="1" /><path d="M 108,12" fill="green" stroke="black" stroke-width="1" /><path d="M 107,12" fill="green" stroke="black" stroke-width="1" /><path d="M 106,12 106,12" fill="green" stroke="black" stroke-width="1" /><path d="M 105,12" fill="green" stroke="black" stroke-width="1" /><path d="M 104,12" fill="green" stroke="black" stroke-width="1" /><path d="M 103,12 103,12" fill="green" stroke="black" stroke-width="1" /><path d="M 102,12" fill="green" stroke="black" stroke-width="1" /><path d="M 101,12" fill="green" stroke="black" stroke-width="1" /><path d="M 100,12" fill="green" stroke="black" stroke-width="1" /><path d="M 98,12 99,12" fill="green" stroke="black" stroke-width="1" /><path d="M 97,12" fill="green" stroke="black" stroke-width="1" /><path d="M 96,12" fill="green" stroke="black" stroke-width="1" /><path d="M 95,12" fill="green" stroke="black" stroke-width="1" /><path d="M 94,12" fill="green" stroke="black" stroke-width="1" /><path d="M 92,12 93,12" fill="green" stroke="black" stroke-width="1" /><path d="M 91,12" fill="green" stroke="black" stroke-width="1" /><path d="M 90,12" fill="green" stroke="black" stroke-width="1" /><path d="M 86,12 88,12" fill="green" stroke="black" stroke-width="1" /><path d="M 85,12" fill="green" stroke="black" stroke-width="1" /><path d="M 84,12" fill="green" stroke="black" stroke-width="1" /><path d="M 83,12" fill="green" stroke="black" stroke-width="1" /><path d="M 81,12 82,12" fill="green" stroke="black" stroke-width="1" /><path d="M 80,12" fill="green" stroke="black" stroke-width="1" /><path d="M 79,12" fill="green" stroke="black" stroke-width="1" /><path d="M 78,12" fill="green" stroke="black" stroke-width="1" /><path d="M 75,12 77,12" fill="green" stroke="black" stroke-width="1" /><path d="M 74,12" fill="green" stroke="black" stroke-width="1" /><path d="M 73,12" fill="green" stroke="black" stroke-width="1" /><path d="M 72,12" fill="green" stroke="black" stroke-width="1" /><path d="M 71,12" fill="green" stroke="black" stroke-width="1" /><path d="M 70,12 70,12 69,13 70,13 69,14 69,14 70,15 69,15 70,16 69,16 69,17 70,18 69,18 70,19 69,19 69,20 70,20 69,21 70,21 69,22 69,23 70,23 69,24 70,24 69,25 69,25 70,26 69,26 70,27 69,27 69,28 70,28 69,29 70,29 70,30 69,30 70,31 69,31 70,32 69,33 68,33 68,32 68,32 67,31 67,31 66,32 66,35 66,35 67,35 67,35 67,33 68,33 68,33 68,34 69,34 69,34 70,35 70,35 69,36 69,37 70,37 69,38 70,38 68,40 68,40 68,41 69,42 68,42 66,42 66,43 65,43 65,43 64,44 64,44 64,44 63,45 63,45 63,45 62,46 62,46 62,46 62,47 62,47 62,48 63,48 63,48 65,48 66,49 69,49 70,50 69,50 70,51 69,51 69,52 70,52 69,53 70,53 69,54 69,54 70,55 69,55 70,56 69,56 69,57 69,58 68,58 66,60 66,61 66,62 68,62 69,62 69,63 68,63 68,63 67,64 67,64 67,65 66,65 65,64 64,64 62,66 62,65 61,65 61,65 60,65 59,64 59,63 57,63 57,64 57,64 56,64 56,65 57,65 57,66 56,66 56,66 56,67 55,68 55,68 54,67 54,66 53,66 53,65 54,65 54,64 53,64 53,64 51,62 51,63 49,63 48,63 48,63 46,63 46,63 44,63 43,63 43,63 42,62 39,62 38,63 37,63 37,64 36,64 35,63 34,63 33,64 33,64 32,63 33,63 32,63 32,63 33,64 33,65 32,66 32,66 31,66 32,66 32,66 33,67 33,67 32,67 33,68 33,68 32,69 32,69 32,70 32,71 31,71 31,71 31,70 30,70 30,71 30,71 30,72 31,72 32,73 32,73 33,73 33,73 33,72 33,71 34,71 34,71 34,69 35,68 36,69 36,70 36,70 36,71 36,71 36,73 37,74 37,74 38,74 37,75 37,76 38,76 37,77 37,77 36,76 36,76 36,75 34,75 33,74 33,75 32,75 31,75 30,76 30,76 29,77 29,78 30,78 31,78 32,78 32,78 33,78 33,79 33,78 34,79 34,79 34,80 34,80 34,80 35,81 34,81 34,82 35,83 37,81 37,82 37,82 38,83 39,83 41,81 44,81 45,82 45,83 44,83 44,84 45,85 45,86 44,87 43,87 42,86 40,86 40,85 40,86 39,86 37,86 37,86 37,85 35,84 34,84 34,84 34,86 34,86 35,86 36,86 36,86 37,86 37,86 37,87 37,88 37,88 37,89 37,91 37,91 38,92 37,93 36,93 36,94 34,94 33,94 32,93 33,93 32,93 33,94 32,94 33,95 32,96 31,96 31,96 31,97 31,97 32,98 33,98 33,99 33,99 33,100 32,101 32,101 33,102 33,103 33,102 34,102 35,103 36,103 38,102 39,103 39,104 38,104 38,105 38,105 34,105 34,106 32,104 33,104 32,104 32,105 32,105 14,105 32,105 33,106 33,107 32,107 32,108 33,109 32,109 32,110 33,110 33,111 32,111 32,112 33,113 32,113 32,114 33,114 33,115 33,114 32,113 33,113 32,112 33,112 32,111 33,111 33,110 32,109 33,109 32,108 33,108 32,107 33,107 33,106 33,105 34,106 34,105 38,105 39,106 39,106 40,107 40,106 41,106 41,107 41,107 40,108 41,109 43,109 43,109 43,108 43,108 43,107 43,107 45,108 45,109 45,109 46,109 47,110 48,110 49,109 52,109 52,110 55,110 56,108 58,108 58,109 58,109 60,111 59,111 59,112 59,112 58,112 58,113 56,113 55,114 54,113 54,113 53,113 52,113 52,113 51,113 52,113 51,114 51,114 51,115 51,115 50,116 50,116 49,117 49,118 49,118 49,119 47,120 47,121 47,121 47,123 47,123 48,123 48,124 47,125 47,126 47,126 46,126 47,126 47,127 47,128 47,128 46,128 46,130 46,131 45,131 45,130 43,132 43,133 42,133 42,133 41,134 41,134 39,135 39,136 37,138 38,138 39,138 40,137 41,137 42,137 42,137 43,137 44,136 45,136 47,137 47,137 48,137 48,137 49,137 50,137 50,136 51,137 52,137 53,138 52,139 51,139 51,139 50,139 50,139 49,138 47,138 46,139 46,139 45,139 45,139 44,139 42,139 42,141 41,142 41,142 38,145 37,145 36,145 36,146 38,147 38,148 37,148 37,151 37,151 37,152 38,152 38,152 37,153 36,153 35,153 35,152 34,151 34,150 33,150 33,150 32,149 33,149 32,148 33,148 32,148 33,149 32,149 33,150 33,150 31,152 29,151 29,151 28,151 28,151 27,152 27,152 24,154 24,155 24,156 23,156 22,157 22,158 23,159 24,159 24,159 25,158 25,158 27,160 27,160 29,158 32,158 32,158 33,158 33,158 35,158 35,157 36,157 36,157 39,157 39,157 39,158 37,158 36,158 36,159 34,161 33,161 32,160 33,160 33,159 33,160 32,160 33,161 32,162 31,162 30,163 30,163 29,163 28,163 27,164 27,165 27,165 26,165 26,166 27,165 27,166 27,166 25,168 25,168 24,169 24,170 24,170 25,171 25,171 25,172 25,172 26,173 26,173 27,172 27,172 28,170 29,170 29,171 29,171 29,172 29,172 29,173 29,173 30,173 31,174 31,174 32,174 33,174 33,173 33,173 34,173 35,172 35,172 36,171 37,171 37,171 40,171 41,170 42,170 43,170 42,171 42,171 41,171 41,171 39,173 38,173 37,175 35,175 33,177 33,177 32,176 33,176 33,175 33,175 32,176 32,176 33,177 31,178 31,179 30,180 30,181 32,181 33,181 33,181 34,181 35,180 36,181 37,181 38,180 38,180 38,180 37,179 38,178 41,178 42,178 42,178 43,177 43,177 44,177 44,176 44,175 46,175 46,176 46,176 46,177 46,177 45,178 44,178 44,179 43,179 42,180 42,180 41,180 41,180 40,181 40,181 38,182 38,183 38,184 37,183 37,183 36,184 36,183 35,183 35,184 34,183 34,183 33,184 33,183 33,182 33,183 32,183 31,183 31,184 32,183 33,184 33,185 32,185 33,186 33,187 32,187 33,188 32,188 33,189 32,189 33,190 33,191 32,191 33,192 32,192 33,193 32,192 33,192 32,191 33,191 33,190 32,189 33,189 32,188 33,188 32,187 33,187 33,186 32,185 33,185 33,184 34,183 34,183 35,184 35,183 36,183 36,184 37,183 37,183 38,184 38,183 39,184 39,184 40,184 38,186 38,187 38,187 39,187 40,186 40,186 41,185 42,185 43,185 43,185 44,185 44,186 44,185 45,185 45,185 46,185 47,184 47,184 49,186 51,186 51,187 51,186 52,185 53,185 54,184 54,184 55,183 55,183 56,184 57,184 57,183 58,184 59,184 60,184 61,183 61,184 61,183 61,183 61,181 61,181 62,181 62,181 63,181 63,182 65,182 66,181 66,181 65,180 65,179 66,179 66,179 67,179 68,180 70,180 70,179 70,179 70,178 71,177 73,177 73,177 74,177 75,176 75,175 75,174 74,173 74,171 74,171 74,170 75,169 77,169 77,170 77,170 77,173 77,173 78,173 78,173 79,173 79,172 81,172 81,172 81,171 82,171 82,171 82,170 83,170 83,170 84,170 85,168 85,168 85,167 84,167 85,166 85,166 86,166 86,164 86,164 87,164 87,166 87,166 88,166 89,167 88,167 89,168 88,168 89,169 89,169 88,170 88,170 89,171 89,172 88,172 89,173 89,174 88,174 88,175 89,175 89,177 88,177 88,178 89,178 89,179 88,180 88,180 89,181 89,182 88,183 87,183 87,184 86,183 85,183 85,184 86,183 86,183 87,184 87,183 88,183 89,184 89,185 88,185 89,186 89,187 88,187 89,188 89,189 88,189 89,190 89,190 88,191 89,191 89,193 88,193 89,194 89,195 88,196 88,196 89,197 89,198 88,198 89,199 89,200 88,201 88,201 89,202 89,203 88,203 89,203 89,204 89,203 89,203 89,184 88,184 89,183 106,183 106,184 106,184 107,185 106,185 107,185 106,184 106,184 107,183 107,183 108,184 108,183 109,183 109,184 109,183 108,183 108,184 107,183 107,183 106,183 107,182 106,182 106,183 106,183 89,183 89,183 89,166 89,165 90,165 90,166 91,165 92,165 92,166 92,165 91,165 92,164 92,163 92,163 92,161 92,160 92,160 93,160 94,159 94,158 94,158 95,158 96,157 99,157 100,158 100,158 101,157 101,157 102,156 103,156 103,156 105,156 106,156 107,157 106,157 107,158 106,158 107,159 106,159 107,159 106,158 107,158 106,157 107,156 108,156 108,156 109,156 110,155 110,154 110,154 110,153 110,152 110,152 111,152 112,153 114,153 114,153 115,153 115,154 116,154 116,154 117,154 117,154 117,153 118,153 118,153 120,154 121,153 120,152 120,151 120,150 120,149 118,147 118,147 120,147 121,146 121,144 122,143 122,142 123,141 123,140 123,140 123,139 124,138 124,137 123,137 123,133 124,132 124,132 124,131 124,131 125,130 125,131 125,132 126,132 125,133 126,133 125,134 125,134 126,135 125,135 125,137 126,137 125,138 125,139 126,139 125,140 125,140 126,141 125,141 126,142 125,142 125,143 126,143 125,144 126,144 125,145 125,146 126,146 126,145 125,145 126,144 125,144 126,143 125,143 126,142 126,142 125,141 126,141 126,140 125,140 126,139 125,139 126,138 125,138 126,137 125,137 125,136 126,136 125,135 126,135 125,134 126,134 126,133 125,133 126,132 125,132 126,131 125,131 126,130 125,130 126,129 126,129 125,128 125,128 126,127 126,127 126,126 127,126 126,126 126,126 127,125 127,124 126,124 127,123 126,123 127,122 127,122 127,122 127,121 128,120 128,119 127,119 127,118 127,118 127,117 126,117 126,114 126,113 126,111 125,110 126,110 126,109 125,109 126,108 125,108 126,107 125,107 125,108 126,108 125,109 124,109 124,105 123,104 123,102 123,102 124,102 125,101 125,102 125,103 126,103 125,104 125,105 126,106 125,106 126,106 126,106 126,105 127,106 127,105 142,105 143,106 143,105 144,105 143,105 143,106 142,105 127,105 127,106 126,105 126,106 125,105 125,105 126,104 125,104 126,103 125,103 126,102 125,102 126,101 125,101 125,100 126,100 126,99 125,99 125,98 126,98 126,97 125,97 126,96 125,96 126,95 125,95 126,94 125,94 125,93 126,93 125,92 126,92 126,91 125,91 126,90 125,90 126,89 125,89 126,88 125,88 126,87 125,87 126,86 125,87 125,88 126,88 125,89 125,90 126,90 125,91 125,91 126,92 125,92 125,94 126,94 125,95 125,96 126,96 125,97 126,97 125,98 125,99 126,99 125,100 125,100 125,101 123,99 123,98 124,97 123,96 123,95 124,94 124,94 124,93 122,91 122,91 121,91 121,90 121,90 121,89 120,88 120,86 121,85 121,86 121,85 121,84 120,83 120,81 119,80 119,80 118,80 118,80 117,79 117,76 117,76 121,76 122,75 122,74 121,73 121,72 121,72 121,71 121,71 122,71 122,71 122,72 123,72 123,72 123,73 124,73 124,73 125,73 125,73 125,74 126,74 125,75 126,75 125,76 125,77 126,77 125,78 126,78 125,79 125,80 126,80 125,81 125,82 126,82 125,83 126,83 125,84 125,85 126,85 125,85 126,84 125,84 126,83 125,83 126,82 125,82 126,81 125,81 126,80 125,80 125,79 126,79 126,78 125,78 126,77 125,77 126,76 125,76 126,75 125,75 126,74 126,74 125,73 126,73 125,72 126,72 126,71 126,71 127,71 128,70 127,69 128,69 128,67 128,66 128,66 128,66 127,65 127,65 128,64 128,63 129,63 129,63 130,63 131,63 134,63 135,62 135,61 135,61 135,60 135,60 135,59 135,58 136,59 136,59 137,58 137,57 137,57 137,55 138,55 138,54 137,54 138,53 138,52 137,52 137,50 136,49 136,48 136,48 135,48 135,47 135,46 135,46 134,45 134,45 133,44 133,44 132,43 130,43 129,44 129,44 128,45 128,44 128,43 130,41 130,41 131,41 132,41 132,40 131,40 131,38 130,37 130,37 129,37 128,37 127,36 127,36 127,35 127,35 127,34 127,34 127,33 126,33 125,32 125,29 125,29 125,28 125,27 125,27 125,26 125,25 125,25 125,24 125,24 125,23 125,22 125,22 125,21 125,21 125,20 125,19 125,19 125,18 125,18 125,17 125,16 125,15 125,15 125,14 125,14 125,13 125,13 126,12 126,12 126,12 125,12 125,12 125,12 125,13 125,13 125,14 125,14 125,15 125,15 125,16 125,16 125,17 125,17 125,18 125,18 125,19 125,19 125,20 125,20 125,21 125,21 125,22 125,22 125,23 125,23 125,24 125,24 125,25 125,25 125,26 125,26 125,27 125,27 125,28 125,28 125,29 124,29 123,27 123,25 123,24 123,24 120,21 119,21 119,21 118,21 115,21 114,20 113,20 113,20 111,21 111,21 110,22 109,22 108,23 108,23 107,24 107,24 106,23 107,23 107,22 106,22 106,22 107,23 106,23 107,24 106,25 105,24 104,24 104,24 103,24 102,25 102,25 102,26 102,27 101,27 101,28 100,29 98,29 97,30 97,30 96,29 97,28 97,28 99,26 99,26 99,25 100,25 100,25 102,23 102,23 102,23 103,22 103,22 103,21 103,21 102,21 102,20 101,20 101,20 100,20 99,19 99,19 95,16 94,16 94,16 93,16 93,18 93,19 92,19 90,21 90,21 90,22 90,22 90,23 90,23 90,24 90,24 90,25 89,25 89,24 89,23 88,23 88,22 89,22 89,12 89,14 88,14 88,15 89,15 89,16 88,17 88,17 89,18 89,19 88,20 88,20 89,21 89,21 88,22 87,21 87,21 86,21 86,22 86,23 86,23 85,24 84,23 84,23 83,23 83,24 83,24 83,25 82,25 81,24 80,24 79,24 79,25 79,25 78,25 78,26 77,26 76,26 74,26 74,27 73,27 73,28 73,29 73,29 73,30 73,31 72,31 72,31 71,31 71,31 70,31 70,31 70,29 69,29 70,28 70,28 69,27 70,27 69,26 70,26 70,25 69,25 70,24 69,24 70,23 69,23 70,22 69,22 70,21 69,21 70,20 69,20 70,19 70,19 69,18 70,18 69,17 70,17 69,16 70,16 69,15 70,15 70,14 69,14 70,13 69,13 70,12" fill="green" stroke="black" stroke-width="1" /><path d="M 69,12" fill="green" stroke="black" stroke-width="1" /><path d="M 68,12" fill="green" stroke="black" stroke-width="1" /><path d="M 67,12" fill="green" stroke="black" stroke-width="1" /><path d="M 66,12" fill="green" stroke="black" stroke-width="1" /><path d="M 64,12 65,12" fill="green" stroke="black" stroke-width="1" /><path d="M 63,12" fill="green" stroke="black" stroke-width="1" /><path d="M 62,12" fill="green" stroke="black" stroke-width="1" /><path d="M 61,12" fill="green" stroke="black" stroke-width="1" /><path d="M 60,12" fill="green" stroke="black" stroke-width="1" /><path d="M 59,12 59,12" fill="green" stroke="black" stroke-width="1" /><path d="M 58,12" fill="green" stroke="black" stroke-width="1" /><path d="M 57,12" fill="green" stroke="black" stroke-width="1" /><path d="M 56,12" fill="green" stroke="black" stroke-width="1" /><path d="M 55,12" fill="green" stroke="black" stroke-width="1" /><path d="M 53,12 54,12" fill="green" stroke="black" stroke-width="1" /><path d="M 52,12" fill="green" stroke="black" stroke-width="1" /><path d="M 51,12" fill="green" stroke="black" stroke-width="1" /><path d="M 50,12" fill="green" stroke="black" stroke-width="1" /><path d="M 49,12" fill="green" stroke="black" stroke-width="1" /><path d="M 48,12 48,12" fill="green" stroke="black" stroke-width="1" /><path d="M 47,12" fill="green" stroke="black" stroke-width="1" /><path d="M 46,12" fill="green" stroke="black" stroke-width="1" /><path d="M 45,12" fill="green" stroke="black" stroke-width="1" /><path d="M 44,12" fill="green" stroke="black" stroke-width="1" /><path d="M 41,12 43,12" fill="green" stroke="black" stroke-width="1" /><path d="M 40,12" fill="green" stroke="black" stroke-width="1" /><path d="M 39,12" fill="green" stroke="black" stroke-width="1" /><path d="M 38,12" fill="green" stroke="black" stroke-width="1" /><path d="M 37,12 37,12" fill="green" stroke="black" stroke-width="1" /><path d="M 36,12" fill="green" stroke="black" stroke-width="1" /><path d="M 35,12" fill="green" stroke="black" stroke-width="1" /><path d="M 34,12" fill="green" stroke="black" stroke-width="1" /><path d="M 33,12 33,12" fill="green" stroke="black" stroke-width="1" /><path d="M 30,12 32,12" fill="green" stroke="black" stroke-width="1" /><path d="M 29,12" fill="green" stroke="black" stroke-width="1" /><path d="M 28,12" fill="green" stroke="black" stroke-width="1" /><path d="M 27,12" fill="green" stroke="black" stroke-width="1" /><path d="M 26,12 26,12" fill="green" stroke="black" stroke-width="1" /><path d="M 25,12" fill="green" stroke="black" stroke-width="1" /><path d="M 24,12" fill="green" stroke="black" stroke-width="1" /><path d="M 23,12" fill="green" stroke="black" stroke-width="1" /><path d="M 22,12" fill="green" stroke="black" stroke-width="1" /><path d="M 21,12" fill="green" stroke="black" stroke-width="1" /><path d="M 19,12 20,12" fill="green" stroke="black" stroke-width="1" /><path d="M 18,12" fill="green" stroke="black" stroke-width="1" /><path d="M 17,12" fill="green" stroke="black" stroke-width="1" /><path d="M 16,12" fill="green" stroke="black" stroke-width="1" /><path d="M 15,12" fill="green" stroke="black" stroke-width="1" /><path d="M 14,12 14,12" fill="green" stroke="black" stroke-width="1" /><path d="M 13,12 12,12 12,13 12,12" fill="green" stroke="black" stroke-width="1" /><path d="M 98,8" fill="green" stroke="black" stroke-width="1" /><path d="M 97,8 96,8 97,8" fill="green" stroke="black" stroke-width="1" /><path d="M 42,6 41,7 42,7 41,8 41,8 41,8 43,8 43,8 42,8 41,7" fill="green" stroke="black" stroke-width="1" /><path d="M 117,5 117,6 117,8 117,8 118,7 117,7 117,6" fill="green" stroke="black" stroke-width="1" /><path d="M 96,5 97,5 97,5 98,6 98,7 98,7 99,6 98,6 98,5 98,5" fill="green" stroke="black" stroke-width="1" /><path d="M 115,4 115,4 115,5 115,6 114,7 115,8 115,8 116,8 115,8 115,7 115,7 115,6 116,5 115,5 115,4 116,4 116,4" fill="green" stroke="black" stroke-width="1" /><path d="M 134,3 134,3 134,4 136,4 136,4 136,5 135,5 136,5 136,6 135,6 135,7 135,8 134,8 135,8 135,8 135,7 136,6 136,5 136,4 136,3 136,3 135,3 135,3" fill="green" stroke="black" stroke-width="1" /><path d="M 117,3 117,3" fill="green" stroke="black" stroke-width="1" /><path d="M 98,3 97,3 97,4 98,4 99,3 99,3 98,3" fill="green" stroke="black" stroke-width="1" /><path d="M 80,3 79,3 79,4 80,4 80,5 79,5 79,5 78,5 78,6 78,6 78,7 79,7 80,7 79,8 80,8 80,7 80,7 81,7 80,6 80,5 80,5 80,4 80,4 80,3" fill="green" stroke="black" stroke-width="1" /><path d="M 60,3 60,3 60,4 60,3 61,3 61,4 61,4 61,5 61,6 61,6 61,7 61,8 61,8 60,9 60,8 60,8 59,8 60,9 62,7 62,6 61,5 61,5 61,4 61,3 61,3" fill="green" stroke="black" stroke-width="1" /><path d="M 41,3 40,4 41,4 41,3 42,4 42,4 43,4 43,5 42,5 43,6 43,5 43,5 43,4 43,4 43,3 42,3" fill="green" stroke="black" stroke-width="1" /><path d="M 22,3 21,4 21,4 21,5 22,5 21,6 22,6 22,7 21,8 21,8 22,8 22,8" fill="green" stroke="black" stroke-width="1" /></svg>