<svg id="visual" viewBox="0 0 900 450" width="900" height="450" xmlns="http://www.w3.org/2000/svg" xmlns:xlink="http://www.w3.org/1999/xlink" version="1.1"><rect x="0" y="0" width="900" height="450" fill="#001220"></rect><path d="M0 271L21.5 278.7C43 286.3 86 301.7 128.8 311.3C171.7 321 214.3 325 257.2 316.7C300 308.3 343 287.7 385.8 283.7C428.7 279.7 471.3 292.3 514.2 298.5C557 304.7 600 304.3 642.8 300.3C685.7 296.3 728.3 288.7 771.2 283.8C814 279 857 277 878.5 276L900 275L900 451L878.5 451C857 451 814 451 771.2 451C728.3 451 685.7 451 642.8 451C600 451 557 451 514.2 451C471.3 451 428.7 451 385.8 451C343 451 300 451 257.2 451C214.3 451 171.7 451 128.8 451C86 451 43 451 21.5 451L0 451Z" fill="#007185"></path><path d="M0 328L21.5 326.5C43 325 86 322 128.8 326.7C171.7 331.3 214.3 343.7 257.2 341.3C300 339 343 322 385.8 313.2C428.7 304.3 471.3 303.7 514.2 311C557 318.3 600 333.7 642.8 342.2C685.7 350.7 728.3 352.3 771.2 348.3C814 344.3 857 334.7 878.5 329.8L900 325L900 451L878.5 451C857 451 814 451 771.2 451C728.3 451 685.7 451 642.8 451C600 451 557 451 514.2 451C471.3 451 428.7 451 385.8 451C343 451 300 451 257.2 451C214.3 451 171.7 451 128.8 451C86 451 43 451 21.5 451L0 451Z" fill="#04576d"></path><path d="M0 379L21.5 375.7C43 372.3 86 365.7 128.8 366.3C171.7 367 214.3 375 257.2 378C300 381 343 379 385.8 376.7C428.7 374.3 471.3 371.7 514.2 364.2C557 356.7 600 344.3 642.8 341.7C685.7 339 728.3 346 771.2 353.5C814 361 857 369 878.5 373L900 377L900 451L878.5 451C857 451 814 451 771.2 451C728.3 451 685.7 451 642.8 451C600 451 557 451 514.2 451C471.3 451 428.7 451 385.8 451C343 451 300 451 257.2 451C214.3 451 171.7 451 128.8 451C86 451 43 451 21.5 451L0 451Z" fill="#073e53"></path><path d="M0 385L21.5 381.8C43 378.7 86 372.3 128.8 375.8C171.7 379.3 214.3 392.7 257.2 393.3C300 394 343 382 385.8 382C428.7 382 471.3 394 514.2 394.8C557 395.7 600 385.3 642.8 384.8C685.7 384.3 728.3 393.7 771.2 392.7C814 391.7 857 380.3 878.5 374.7L900 369L900 451L878.5 451C857 451 814 451 771.2 451C728.3 451 685.7 451 642.8 451C600 451 557 451 514.2 451C471.3 451 428.7 451 385.8 451C343 451 300 451 257.2 451C214.3 451 171.7 451 128.8 451C86 451 43 451 21.5 451L0 451Z" fill="#062739"></path><path d="M0 404L21.5 402.5C43 401 86 398 128.8 398.2C171.7 398.3 214.3 401.7 257.2 404.7C300 407.7 343 410.3 385.8 413.7C428.7 417 471.3 421 514.2 421.8C557 422.7 600 420.3 642.8 416.8C685.7 413.3 728.3 408.7 771.2 404.7C814 400.7 857 397.3 878.5 395.7L900 394L900 451L878.5 451C857 451 814 451 771.2 451C728.3 451 685.7 451 642.8 451C600 451 557 451 514.2 451C471.3 451 428.7 451 385.8 451C343 451 300 451 257.2 451C214.3 451 171.7 451 128.8 451C86 451 43 451 21.5 451L0 451Z" fill="#001220"></path></svg>